<svg width="466" height="103" viewBox="0 0 466 103" fill="none" xmlns="http://www.w3.org/2000/svg">
<path d="M88.2308 76.4992L44.1491 102.038L0 76.5381L0.0673933 25.577L44.1491 0.0380859L88.2982 25.5381L88.2308 76.4992Z" fill="black"/>
<path d="M57.1344 49.8695L62.7358 46.6302L62.7474 73.2539C62.7478 74.0738 62.7109 74.9153 62.7113 75.7351C62.7124 77.6769 62.8253 79.2086 64.8791 78.0209C66.5968 77.0276 67.0071 75.8407 67.1183 74.2656L67.1048 44.1035L72.7062 40.8642L72.7197 71.0263C72.7952 72.4503 73.2065 73.2052 74.8496 72.255C77.0154 71.0025 77.1266 69.4274 77.1256 67.3993C77.1196 56.3528 77.0812 49.3841 77.0753 38.3376L82.674 35.1L82.6902 65.2604C82.693 70.5248 79.3714 76.1146 74.853 78.7276C72.9113 79.8505 71.2304 80.1319 69.9228 79.6795C68.5791 81.6652 66.8617 83.349 64.8826 84.4935C60.4016 87.0849 57.1507 85.2096 57.1479 80.0316L57.1344 49.8695Z" fill="white"/>
<path fill-rule="evenodd" clip-rule="evenodd" d="M16.1006 21.9945L44.0926 5.82666L63.1929 16.8588C69.8266 20.6903 69.7815 26.8796 63.1553 30.7067L59.1389 33.0266C52.5089 36.856 43.7007 37.936 35.2009 33.0266L16.1006 21.9945ZM57.7982 27.1356C61.2342 25.151 61.2599 21.9307 57.8358 19.953L44.4679 12.2318L27.1526 22.233L40.1891 29.7627C43.6131 31.7404 50.4841 31.2743 52.956 29.9324L57.7982 27.1356Z" fill="white"/>
<path fill-rule="evenodd" clip-rule="evenodd" d="M149.986 35.545C149.986 27.3473 143.242 20.6012 135.048 20.6012H120.11V80.3765H135.048C143.242 80.3765 149.986 73.7158 149.986 65.4327V35.545ZM140.767 34.6911V66.372C140.767 69.5315 138.206 72.1787 135.048 72.1787H129.244V28.8843H135.048C138.206 28.8843 140.767 31.5315 140.767 34.6911Z" fill="black"/>
<path fill-rule="evenodd" clip-rule="evenodd" d="M185.172 35.545C185.172 27.3473 178.429 20.6012 170.235 20.6012C161.955 20.6012 155.297 27.3473 155.297 35.545V65.4327C155.297 73.7158 161.955 80.3765 170.235 80.3765C178.429 80.3765 185.172 73.7158 185.172 65.4327V35.545ZM175.954 34.6911V66.372C175.954 69.5315 173.393 72.1787 170.235 72.1787C166.991 72.1787 164.43 69.5315 164.43 66.372V34.6911C164.43 31.5315 166.991 28.8843 170.235 28.8843C173.393 28.8843 175.954 31.5315 175.954 34.6911Z" fill="black"/>
<path d="M211.14 20.6012H220.359V65.4327C220.359 73.7158 213.615 80.3765 205.421 80.3765C197.141 80.3765 190.483 73.7158 190.483 65.4327V20.6012H199.617V66.372C199.617 69.5315 202.177 72.0933 205.421 72.0933C208.579 72.0933 211.14 69.5315 211.14 66.372V20.6012Z" fill="black"/>
<path fill-rule="evenodd" clip-rule="evenodd" d="M255.545 59.954C255.46 55.3493 253.411 51.2563 250.168 48.5276C252.643 45.7989 254.094 42.3028 254.094 38.3803V35.5663C254.094 27.3803 247.436 20.6438 239.156 20.6438H225.67V80.3339H240.608C248.802 80.3339 255.545 73.6827 255.545 65.4114V59.954ZM239.156 28.9152C242.4 28.9152 244.961 31.5586 244.961 34.7136V39.233C244.961 42.3881 242.4 45.0315 239.156 45.0315H234.803V28.9152H239.156ZM246.327 59.016V66.3493C246.327 69.6336 243.463 72.1478 240.266 72.1478H234.803V53.3028H240.522C243.766 53.3028 246.327 55.861 246.327 59.016Z" fill="black"/>
<path d="M269.925 72.0933H284.757V80.3765H260.856V20.6012H269.925V72.0933Z" fill="black"/>
<path d="M299.136 28.8843H313.968V20.6012H290.068V80.3765H313.968V72.0933H299.136V53.2214H311.68V44.9383H299.136V28.8843Z" fill="black"/>
<path d="M319.279 20.6012H328.306C328.306 35.9037 328.246 51.2061 328.246 66.5086C328.246 69.1985 328.426 71.4102 331.736 71.4102C334.504 71.4102 335.166 70.0951 335.347 68.003V20.6012H344.373V68.003C344.494 70.0354 345.156 71.4102 347.803 71.4102C351.294 71.4102 351.474 69.3181 351.474 66.5086C351.474 51.2061 351.414 35.9037 351.414 20.6012H360.441V68.003C360.441 75.2956 355.085 80.3765 347.803 80.3765C344.674 80.3765 341.966 79.4201 339.86 77.7464C337.694 79.4201 334.925 80.3765 331.736 80.3765C324.515 80.3765 319.279 75.176 319.279 68.003V20.6012Z" fill="black"/>
<path fill-rule="evenodd" clip-rule="evenodd" d="M395.627 35.545C395.627 27.3473 388.884 20.6012 380.69 20.6012C372.41 20.6012 365.752 27.3473 365.752 35.545V65.4327C365.752 73.7158 372.41 80.3765 380.69 80.3765C388.884 80.3765 395.627 73.7158 395.627 65.4327V35.545ZM386.409 34.6911V66.372C386.409 69.5315 383.848 72.1787 380.69 72.1787C377.446 72.1787 374.885 69.5315 374.885 66.372V34.6911C374.885 31.5315 377.446 28.8843 380.69 28.8843C383.848 28.8843 386.409 31.5315 386.409 34.6911Z" fill="black"/>
<path fill-rule="evenodd" clip-rule="evenodd" d="M430.814 80.3765H421.595L414.51 53.3068H410.072V80.3765H400.938V20.6012H414.425C422.705 20.6012 429.363 27.3473 429.363 35.545V38.363C429.363 43.4012 426.887 47.8417 422.961 50.5742L430.814 80.3765ZM420.229 34.6911C420.229 31.5315 417.669 28.8843 414.425 28.8843H410.072V45.0237H414.425C417.669 45.0237 420.229 42.3765 420.229 39.2169V34.6911Z" fill="black"/>
<path fill-rule="evenodd" clip-rule="evenodd" d="M466 35.545C466 27.3473 459.257 20.6012 451.063 20.6012H436.125V80.3765H451.063C459.257 80.3765 466 73.7158 466 65.4327V35.545ZM456.782 34.6911V66.372C456.782 69.5315 454.221 72.1787 451.063 72.1787H445.258V28.8843H451.063C454.221 28.8843 456.782 31.5315 456.782 34.6911Z" fill="black"/>
</svg>
